<?xml version="1.0" encoding="utf-8"?>
<!-- Generator: Adobe Illustrator 23.1.0, SVG Export Plug-In . SVG Version: 6.00 Build 0)  -->
<svg version="1.1" id="Layer_1" xmlns="http://www.w3.org/2000/svg" xmlns:xlink="http://www.w3.org/1999/xlink" x="0px" y="0px"
	 viewBox="0 0 56.07 64.59" style="enable-background:new 0 0 56.07 64.59;" xml:space="preserve">
<style type="text/css">
	.st0{fill:#FFFFFF;}
	.st1{fill:#F7F8F8;}
</style>
<g id="민흰1">
	<g>
		<path class="st0" d="M0.9,36.77c3.67-11.52,7.33-23.04,11-34.56c3.63,6.64,7.27,13.27,10.9,19.91c2.08-7.09,4.16-14.18,6.25-21.26
			c5.18,12.31,9.67,24.77,13.45,37.34"/>
		<g>
			<path d="M1.76,37.01c3.67-11.52,7.33-23.04,11-34.56c-0.54,0.07-1.08,0.14-1.62,0.21c3.63,6.64,7.27,13.27,10.9,19.91
				c0.37,0.68,1.41,0.5,1.62-0.21c2.08-7.09,4.16-14.18,6.25-21.26c-0.57,0-1.14,0-1.71,0c5.12,12.21,9.63,24.66,13.45,37.34
				c0.33,1.09,2.04,0.63,1.71-0.47C39.53,25.3,35.02,12.84,29.9,0.63c-0.32-0.76-1.44-0.91-1.71,0c-2.08,7.09-4.16,14.18-6.25,21.26
				c0.54-0.07,1.08-0.14,1.62-0.21c-3.63-6.64-7.27-13.27-10.9-19.91c-0.38-0.7-1.4-0.49-1.62,0.21c-3.67,11.52-7.33,23.04-11,34.56
				C-0.3,37.63,1.41,38.1,1.76,37.01L1.76,37.01z"/>
		</g>
	</g>
	<g>
		<path class="st0" d="M29.82,39.8c8.55-0.88,17.1-1.76,25.65-2.65"/>
		<g>
			<path d="M29.82,40.42c8.55-0.88,17.1-1.76,25.65-2.65c0.79-0.08,0.8-1.33,0-1.25c-8.55,0.88-17.1,1.76-25.65,2.65
				C29.03,39.26,29.02,40.51,29.82,40.42L29.82,40.42z"/>
		</g>
	</g>
	<g>
		<path class="st0" d="M43.22,38.25c0.99,5.85,1.98,11.69,2.97,17.54c0.42,2.45,0.62,5.33-1.93,6.95c-2.53,1.61-6.69,1.02-9.17-0.63
			s-3.72-4.05-4.87-6.35"/>
		<g>
			<path d="M42.37,38.49c0.67,3.95,1.34,7.9,2.01,11.85c0.33,1.95,0.68,3.89,0.99,5.84c0.21,1.31,0.38,2.79-0.12,4.06
				c-1.22,3.12-5.56,2.91-8.13,1.92c-3.09-1.19-4.73-4.03-6.13-6.85c-0.51-1.02-2.04-0.12-1.53,0.9c1.63,3.28,3.61,6.32,7.19,7.66
				c2.95,1.1,7.06,1.16,9.3-1.41c2.34-2.67,1.15-6.65,0.62-9.75c-0.83-4.9-1.66-9.8-2.49-14.69C43.89,36.89,42.18,37.37,42.37,38.49
				L42.37,38.49z"/>
		</g>
	</g>
	<g>
		<g>
			<path d="M13.83,24.86c1.14,0,1.14-1.77,0-1.77C12.69,23.09,12.68,24.86,13.83,24.86L13.83,24.86z"/>
		</g>
	</g>
	<g>
		<g>
			<path d="M30.03,23.65c1.14,0,1.14-1.77,0-1.77C28.89,21.87,28.89,23.65,30.03,23.65L30.03,23.65z"/>
		</g>
	</g>
	<g>
		<path class="st0" d="M15.49,32.45c0.27,0.91,0.56,1.84,1.27,2.62c0.71,0.77,1.96,1.36,3.22,1.22c1.32-0.14,2.29-1.04,2.61-1.98
			c0.32-0.94,0.12-1.93-0.08-2.89c-0.08,1.21,0.42,2.48,1.62,3.3c1.21,0.83,3.18,1.1,4.57,0.45c1.4-0.65,1.82-2.27,0.65-3.12"/>
		<g>
			<path d="M14.63,32.69c0.38,1.27,0.86,2.54,1.92,3.4c1.02,0.83,2.35,1.24,3.66,1.06c1.17-0.17,2.25-0.84,2.88-1.85
				c0.78-1.26,0.55-2.74,0.27-4.11c-0.21-1.01-1.7-0.73-1.74,0.24c-0.13,3.07,2.64,5.13,5.55,4.99c1.29-0.06,2.65-0.55,3.35-1.71
				c0.66-1.09,0.46-2.48-0.54-3.29c-0.88-0.71-2.14,0.54-1.25,1.25c0.49,0.4,0.55,0.88,0.09,1.35c-0.56,0.58-1.51,0.67-2.27,0.61
				c-1.77-0.14-3.24-1.36-3.16-3.21c-0.58,0.08-1.16,0.16-1.74,0.24c0.18,0.85,0.42,1.87-0.04,2.67c-0.38,0.66-1.11,1.05-1.85,1.1
				c-1.99,0.13-2.92-1.56-3.41-3.2C16.02,31.13,14.31,31.59,14.63,32.69L14.63,32.69z"/>
		</g>
	</g>
</g>
</svg>
