<?xml version="1.0" encoding="utf-8"?>
<!-- Generator: Adobe Illustrator 23.1.0, SVG Export Plug-In . SVG Version: 6.00 Build 0)  -->
<svg version="1.1" id="Layer_1" xmlns="http://www.w3.org/2000/svg" xmlns:xlink="http://www.w3.org/1999/xlink" x="0px" y="0px"
	 viewBox="0 0 225.91 45.32" style="enable-background:new 0 0 225.91 45.32;" xml:space="preserve">
<style type="text/css">
	.st0{fill:#FFFFFF;}
	.st1{fill:#F7F8F8;}
</style>
<g id="이름">
	<g>
		<g>
			<g>
				<path class="st0" d="M193.74,19.07c1.88-5.9,3.75-11.79,5.63-17.69c1.86,3.4,3.72,6.79,5.58,10.19
					c1.07-3.63,2.13-7.25,3.2-10.88c2.65,6.3,4.95,12.67,6.89,19.11"/>
			</g>
			<g>
				<g>
					<path d="M194.18,18.94c1.88-5.9,3.75-11.79,5.63-17.69c-0.28,0.04-0.55,0.07-0.83,0.11c1.86,3.4,3.72,6.79,5.58,10.19
						c0.19,0.35,0.72,0.26,0.83-0.11c1.07-3.63,2.13-7.25,3.2-10.88c-0.29,0-0.58,0-0.88,0c2.62,6.25,4.93,12.62,6.89,19.11
						c0.17,0.56,1.04,0.32,0.88-0.24c-1.96-6.49-4.26-12.86-6.89-19.11c-0.16-0.39-0.74-0.47-0.88,0c-1.07,3.63-2.13,7.25-3.2,10.88
						c0.28-0.04,0.55-0.07,0.83-0.11c-1.86-3.4-3.72-6.79-5.58-10.19c-0.19-0.36-0.72-0.25-0.83,0.11
						c-1.88,5.9-3.75,11.79-5.63,17.69C193.12,19.26,194,19.5,194.18,18.94L194.18,18.94z"/>
				</g>
			</g>
		</g>
		<g>
			<g>
				<path class="st0" d="M208.54,20.62c4.38-0.45,8.75-0.9,13.13-1.35"/>
			</g>
			<g>
				<g>
					<path d="M208.54,20.94c4.38-0.45,8.75-0.9,13.13-1.35c0.4-0.04,0.41-0.68,0-0.64c-4.38,0.45-8.75,0.9-13.13,1.35
						C208.13,20.34,208.13,20.98,208.54,20.94L208.54,20.94z"/>
				</g>
			</g>
		</g>
		<g>
			<g>
				<path class="st0" d="M215.4,19.82c0.51,2.99,1.01,5.98,1.52,8.98c0.21,1.25,0.32,2.73-0.99,3.56c-1.3,0.82-3.42,0.52-4.69-0.32
					c-1.27-0.84-1.9-2.07-2.49-3.25"/>
			</g>
			<g>
				<g>
					<path d="M214.96,19.95c0.34,2.02,0.69,4.04,1.03,6.07c0.17,1,0.35,1.99,0.51,2.99c0.11,0.67,0.2,1.43-0.06,2.08
						c-0.62,1.6-2.84,1.49-4.16,0.98c-1.58-0.61-2.42-2.06-3.14-3.5c-0.26-0.52-1.04-0.06-0.78,0.46c0.84,1.68,1.85,3.24,3.68,3.92
						c1.51,0.57,3.61,0.59,4.76-0.72c1.2-1.37,0.59-3.4,0.32-4.99c-0.42-2.51-0.85-5.01-1.27-7.52
						C215.74,19.13,214.86,19.37,214.96,19.95L214.96,19.95z"/>
				</g>
			</g>
		</g>
		<g>
			<g>
				<g>
					<path d="M200.36,12.97c0.58,0,0.59-0.91,0-0.91C199.77,12.06,199.77,12.97,200.36,12.97L200.36,12.97z"/>
				</g>
			</g>
		</g>
		<g>
			<g>
				<g>
					<path d="M208.65,12.35c0.58,0,0.59-0.91,0-0.91C208.07,11.44,208.06,12.35,208.65,12.35L208.65,12.35z"/>
				</g>
			</g>
		</g>
		<g>
			<g>
				<path class="st0" d="M201.21,16.86c0.14,0.47,0.28,0.94,0.65,1.34c0.36,0.4,1,0.7,1.65,0.62c0.67-0.07,1.17-0.53,1.34-1.01
					c0.16-0.48,0.06-0.99-0.04-1.48c-0.04,0.62,0.21,1.27,0.83,1.69s1.63,0.56,2.34,0.23c0.71-0.33,0.93-1.16,0.33-1.6"/>
			</g>
			<g>
				<g>
					<path d="M200.77,16.98c0.19,0.65,0.44,1.3,0.98,1.74c0.52,0.42,1.2,0.64,1.87,0.54c0.6-0.08,1.15-0.43,1.47-0.95
						c0.4-0.64,0.28-1.4,0.14-2.11c-0.11-0.52-0.87-0.37-0.89,0.12c-0.07,1.57,1.35,2.63,2.84,2.56c0.66-0.03,1.36-0.28,1.72-0.87
						c0.34-0.56,0.24-1.27-0.28-1.68c-0.45-0.36-1.1,0.28-0.64,0.64c0.25,0.2,0.28,0.45,0.05,0.69c-0.28,0.3-0.77,0.34-1.16,0.31
						c-0.91-0.07-1.66-0.69-1.62-1.64c-0.3,0.04-0.59,0.08-0.89,0.12c0.09,0.44,0.22,0.95-0.02,1.37c-0.19,0.34-0.57,0.54-0.95,0.56
						c-1.02,0.07-1.49-0.8-1.74-1.64C201.48,16.18,200.6,16.42,200.77,16.98L200.77,16.98z"/>
				</g>
			</g>
		</g>
	</g>
	<g>
		<g>
			<path d="M166.44,25.83c0.37,0.36,0.69,0.68,0.95,0.96s0.49,0.55,0.67,0.79c0.35,0.49,0.56,0.95,0.62,1.38
				c0.06,0.43,0,0.93-0.19,1.5c-0.05,0.15-0.1,0.3-0.15,0.45c-0.05,0.16-0.11,0.31-0.18,0.48c0.59,0.68,1.16,1.33,1.71,1.93
				c0.55,0.6,1.14,1.16,1.76,1.66l-0.91,1.15c-1.18-0.91-2.27-1.99-3.25-3.25c-0.29,0.62-0.6,1.22-0.93,1.79s-0.64,1.1-0.93,1.57
				l-1.27-0.78c0.51-0.81,0.99-1.65,1.46-2.51s0.83-1.75,1.1-2.66c0.08-0.28,0.13-0.51,0.14-0.71c0.01-0.2,0-0.37-0.04-0.53
				c-0.03-0.15-0.1-0.3-0.19-0.44c-0.09-0.14-0.2-0.29-0.32-0.45c-0.19-0.23-0.37-0.45-0.55-0.66c-0.18-0.21-0.38-0.42-0.6-0.61
				L166.44,25.83z M171.21,30.22c0.22,0,0.49-0.01,0.82-0.02c0.33-0.02,0.69-0.04,1.08-0.06c0.39-0.02,0.78-0.06,1.18-0.1
				c0.4-0.04,0.76-0.09,1.1-0.13c0-0.86-0.01-1.7-0.03-2.53c-0.02-0.82-0.05-1.61-0.1-2.38c-0.02-0.29-0.05-0.53-0.11-0.72
				c-0.06-0.19-0.14-0.34-0.23-0.48c-0.09-0.13-0.21-0.24-0.34-0.34c-0.14-0.1-0.29-0.2-0.46-0.32c-0.24-0.15-0.48-0.29-0.72-0.42
				s-0.51-0.25-0.8-0.37l0.56-1.37c0.96,0.39,1.7,0.75,2.21,1.07c0.52,0.33,0.88,0.68,1.08,1.07c0.19,0.39,0.31,0.88,0.34,1.46
				c0.07,1.11,0.11,2.31,0.13,3.61c0.02,1.3,0.01,2.62-0.01,3.94c-0.03,1.33-0.06,2.63-0.11,3.9c-0.05,1.28-0.11,2.43-0.18,3.45
				h-1.52c0.07-1.27,0.13-2.6,0.18-3.99c0.05-1.39,0.08-2.79,0.1-4.21c-0.34,0.05-0.7,0.09-1.08,0.12
				c-0.38,0.03-0.76,0.06-1.14,0.09s-0.74,0.04-1.07,0.06c-0.33,0.02-0.61,0.02-0.85,0L171.21,30.22z"/>
			<path d="M180.24,32.18c0-0.2,0-0.4,0-0.61c0-0.21,0-0.45-0.01-0.71c-0.01-0.26-0.02-0.55-0.03-0.88
				c-0.01-0.33-0.02-0.71-0.04-1.15c-0.02-0.57-0.12-0.97-0.3-1.21c-0.19-0.24-0.47-0.45-0.84-0.65c-0.14-0.08-0.26-0.15-0.38-0.2
				s-0.25-0.11-0.38-0.17l0.56-1.37c0.29,0.11,0.55,0.22,0.79,0.33c0.24,0.11,0.52,0.26,0.84,0.45c0.32,0,0.74-0.01,1.26-0.04
				c0.52-0.02,1.07-0.05,1.65-0.08c0.58-0.03,1.16-0.08,1.74-0.13c0.57-0.06,1.09-0.12,1.55-0.18c0.03,0.41,0.05,0.89,0.04,1.44
				c-0.01,0.55-0.04,1.12-0.09,1.71s-0.11,1.16-0.19,1.73s-0.15,1.07-0.22,1.49c-0.29,0.05-0.7,0.09-1.23,0.12
				c-0.53,0.03-1.09,0.06-1.69,0.09c-0.59,0.02-1.16,0.04-1.71,0.04S180.56,32.19,180.24,32.18z M185.09,27.15
				c-0.47,0.07-1.04,0.12-1.71,0.17s-1.29,0.08-1.86,0.1c0.14,0.72,0.22,1.32,0.25,1.81c0.03,0.49,0.04,1.02,0.03,1.59
				c0.49,0,1.01-0.01,1.56-0.02c0.55-0.02,1.04-0.04,1.48-0.07c0.08-0.47,0.14-1,0.18-1.59C185.04,28.54,185.07,27.88,185.09,27.15z
				 M188.43,34.18c0.78,0.18,1.4,0.52,1.86,1.04c0.46,0.51,0.65,1.15,0.55,1.92c-0.05,0.33-0.17,0.64-0.36,0.95
				c-0.19,0.31-0.44,0.59-0.77,0.83s-0.73,0.44-1.19,0.59c-0.47,0.15-0.99,0.22-1.56,0.22c-0.68,0-1.16-0.11-1.45-0.32
				c-0.29-0.21-0.46-0.46-0.51-0.76s-0.03-0.6,0.08-0.92s0.19-0.59,0.28-0.82c0.19-0.52,0.42-0.99,0.71-1.42
				c0.29-0.42,0.55-0.89,0.79-1.42L188.43,34.18z M189.35,36.98c0.07-0.47-0.05-0.87-0.34-1.18c-0.3-0.32-0.67-0.56-1.13-0.74
				c-0.12,0.18-0.22,0.34-0.29,0.48c-0.08,0.14-0.15,0.28-0.23,0.43s-0.16,0.31-0.24,0.49c-0.08,0.18-0.18,0.39-0.28,0.63
				c-0.22,0.49-0.3,0.87-0.25,1.15c0.05,0.28,0.29,0.42,0.71,0.42c0.54,0,1-0.15,1.38-0.44S189.28,37.5,189.35,36.98z M187.19,26.32
				c0.41,0,0.93-0.03,1.56-0.09c0.63-0.06,1.23-0.13,1.79-0.21c0-0.18,0-0.35-0.01-0.51c-0.01-0.16-0.02-0.33-0.04-0.51
				c-0.02-0.29-0.05-0.53-0.11-0.72c-0.06-0.19-0.14-0.34-0.23-0.48c-0.09-0.13-0.21-0.24-0.34-0.34c-0.14-0.1-0.29-0.2-0.46-0.32
				c-0.24-0.15-0.48-0.29-0.72-0.42s-0.51-0.25-0.8-0.37l0.56-1.37c0.96,0.39,1.7,0.75,2.21,1.07c0.52,0.33,0.88,0.68,1.08,1.07
				c0.19,0.39,0.31,0.88,0.34,1.46c0.1,1.51,0.15,2.95,0.15,4.32s-0.03,2.81-0.08,4.34h-1.52c0.05-0.89,0.08-1.78,0.08-2.66
				c-0.56,0.08-1.15,0.15-1.79,0.21c-0.63,0.06-1.18,0.07-1.64,0.04l-0.03-1.37c0.42,0,0.96-0.03,1.61-0.09
				c0.65-0.06,1.26-0.13,1.84-0.21c-0.02-0.31-0.03-0.61-0.03-0.89c0-0.28-0.01-0.57-0.03-0.87c-0.56,0.08-1.15,0.15-1.78,0.21
				c-0.63,0.06-1.16,0.07-1.6,0.04L187.19,26.32z"/>
			<path d="M195.28,31.54c1.3-0.67,2.33-1.37,3.09-2.1c0.76-0.73,1.15-1.5,1.17-2.29c-0.61,0.08-1.14,0.14-1.58,0.18
				c-0.45,0.04-1,0.06-1.66,0.06c-0.39,0-0.74-0.08-1.04-0.23c-0.3-0.16-0.64-0.34-1.01-0.55l0.56-1.37
				c0.24,0.13,0.48,0.26,0.74,0.39c0.25,0.13,0.55,0.26,0.89,0.39c1.32-0.03,2.87-0.18,4.67-0.44c0.03,0.21,0.05,0.47,0.04,0.77
				c-0.01,0.3-0.01,0.64-0.01,1.01c-0.03,0.72-0.28,1.4-0.74,2.05c0.35,0.41,0.71,0.79,1.08,1.13s0.74,0.69,1.13,1.01l-0.91,1.15
				c-0.81-0.63-1.58-1.35-2.31-2.15c-0.44,0.41-0.93,0.78-1.48,1.12c-0.55,0.34-1.12,0.65-1.71,0.93c-0.14-0.11-0.26-0.26-0.37-0.43
				C195.69,32.02,195.52,31.8,195.28,31.54z M198.5,39.5c0-0.63-0.01-1.2-0.04-1.68c-0.03-0.49-0.05-0.92-0.08-1.31
				s-0.06-0.73-0.1-1.05c-0.04-0.32-0.09-0.63-0.14-0.94l1.6-0.07c0.07,0.6,0.12,1.21,0.17,1.83c0.04,0.62,0.07,1.24,0.09,1.85
				c0.37,0,0.82-0.02,1.34-0.05c0.52-0.03,1.05-0.07,1.57-0.11c0.52-0.04,1.02-0.09,1.5-0.16c0.47-0.07,0.86-0.14,1.17-0.22
				l0.13,1.44c-0.29,0.05-0.76,0.11-1.42,0.17c-0.66,0.06-1.37,0.12-2.12,0.17c-0.75,0.05-1.47,0.08-2.16,0.11
				C199.33,39.51,198.82,39.51,198.5,39.5z M202.33,21c0.96,0.39,1.7,0.75,2.21,1.07c0.52,0.33,0.88,0.68,1.08,1.07
				c0.19,0.39,0.31,0.88,0.34,1.46c0.05,0.76,0.09,1.56,0.11,2.39c0.03,0.83,0.04,1.67,0.04,2.53c0,0.85-0.01,1.7-0.03,2.55
				c-0.02,0.85-0.03,1.65-0.05,2.42h-1.52c0.03-0.72,0.06-1.5,0.08-2.34c0.02-0.85,0.02-1.69,0-2.54c-0.02-0.85-0.04-1.67-0.06-2.46
				s-0.06-1.51-0.09-2.15c-0.02-0.29-0.06-0.53-0.11-0.72c-0.06-0.19-0.14-0.34-0.23-0.48c-0.09-0.13-0.21-0.24-0.34-0.34
				c-0.14-0.1-0.29-0.2-0.46-0.32c-0.24-0.15-0.48-0.29-0.72-0.42s-0.51-0.25-0.8-0.37L202.33,21z"/>
		</g>
	</g>
	<g>
		<g>
			<path d="M17.47,23.77c0.31,0.32,0.58,0.61,0.8,0.86c0.22,0.25,0.41,0.49,0.57,0.71c0.3,0.44,0.47,0.85,0.52,1.24
				s0,0.83-0.16,1.34c-0.04,0.13-0.09,0.27-0.13,0.4c-0.04,0.14-0.09,0.28-0.15,0.43c0.5,0.61,0.98,1.19,1.44,1.73
				s0.96,1.03,1.48,1.49l-0.77,1.03c-1-0.82-1.91-1.78-2.73-2.91c-0.24,0.55-0.5,1.09-0.78,1.61c-0.28,0.52-0.54,0.99-0.78,1.41
				l-1.07-0.7c0.43-0.73,0.84-1.48,1.23-2.25s0.7-1.57,0.93-2.38c0.07-0.25,0.11-0.46,0.12-0.63s0-0.33-0.03-0.47
				c-0.03-0.14-0.08-0.27-0.16-0.39c-0.08-0.12-0.17-0.26-0.27-0.4c-0.16-0.2-0.31-0.4-0.46-0.59c-0.15-0.19-0.32-0.37-0.5-0.55
				L17.47,23.77z M22.27,19.44c0.81,0.35,1.43,0.67,1.86,0.96c0.44,0.29,0.74,0.61,0.91,0.96c0.16,0.35,0.26,0.79,0.29,1.31
				c0.04,0.68,0.07,1.41,0.08,2.17s0.02,1.56,0.02,2.39c0.26-0.01,0.52-0.04,0.8-0.07s0.55-0.06,0.81-0.1
				c0.26-0.04,0.52-0.08,0.76-0.12c0.24-0.04,0.46-0.09,0.64-0.15l0.11,1.29c-0.19,0.04-0.4,0.08-0.65,0.12
				c-0.25,0.04-0.51,0.07-0.79,0.11s-0.56,0.07-0.85,0.1c-0.29,0.03-0.57,0.05-0.82,0.07c-0.03,1.37-0.06,2.71-0.11,4.01
				c-0.04,1.3-0.09,2.48-0.15,3.53h-1.28c0.04-1,0.09-2.07,0.13-3.18s0.07-2.24,0.1-3.37c0.02-1.13,0.03-2.24,0.02-3.34
				c-0.01-1.1-0.04-2.14-0.1-3.11c-0.01-0.26-0.05-0.48-0.1-0.64c-0.05-0.17-0.11-0.31-0.19-0.43c-0.08-0.12-0.17-0.22-0.29-0.31
				c-0.11-0.09-0.24-0.18-0.38-0.28c-0.2-0.13-0.4-0.25-0.61-0.37c-0.21-0.12-0.43-0.23-0.67-0.33L22.27,19.44z"/>
			<path d="M29.99,28.88c1.09-0.6,1.96-1.22,2.6-1.88c0.64-0.66,0.97-1.34,0.98-2.05c-0.51,0.07-0.96,0.13-1.33,0.16
				c-0.38,0.04-0.84,0.05-1.4,0.05c-0.33,0-0.62-0.07-0.87-0.21c-0.26-0.14-0.54-0.3-0.85-0.49l0.47-1.22
				c0.2,0.12,0.41,0.23,0.62,0.35c0.21,0.12,0.46,0.23,0.75,0.35c1.11-0.03,2.42-0.16,3.92-0.39c0.03,0.19,0.04,0.42,0.03,0.69
				c-0.01,0.27-0.01,0.57-0.01,0.91c-0.03,0.64-0.23,1.25-0.62,1.84c0.3,0.36,0.6,0.7,0.91,1.02c0.31,0.31,0.62,0.62,0.95,0.91
				l-0.77,1.03c-0.68-0.57-1.33-1.21-1.94-1.92c-0.37,0.36-0.79,0.7-1.25,1c-0.46,0.31-0.94,0.58-1.44,0.83
				c-0.11-0.1-0.22-0.23-0.31-0.38C30.33,29.31,30.19,29.12,29.99,28.88z M36.6,31.24c0.65,0.16,1.18,0.47,1.57,0.93
				c0.39,0.46,0.54,1.03,0.46,1.71c-0.04,0.29-0.14,0.58-0.3,0.85c-0.16,0.28-0.37,0.52-0.65,0.74c-0.28,0.22-0.61,0.39-1,0.52
				c-0.39,0.13-0.83,0.2-1.31,0.2c-0.57,0-0.97-0.09-1.22-0.28s-0.38-0.42-0.43-0.68c-0.04-0.26-0.02-0.54,0.06-0.82
				s0.16-0.53,0.23-0.73c0.16-0.47,0.36-0.89,0.6-1.27s0.46-0.8,0.66-1.27L36.6,31.24z M37.37,33.76c0.06-0.42-0.04-0.78-0.29-1.06
				c-0.25-0.28-0.57-0.51-0.95-0.67c-0.1,0.16-0.18,0.3-0.25,0.43c-0.06,0.12-0.13,0.25-0.19,0.38c-0.06,0.13-0.13,0.28-0.2,0.44
				s-0.15,0.35-0.23,0.57c-0.19,0.44-0.26,0.78-0.21,1.03s0.24,0.37,0.6,0.37c0.46,0,0.84-0.13,1.16-0.39
				C37.12,34.59,37.31,34.22,37.37,33.76z M36.13,19.44c0.81,0.35,1.43,0.67,1.86,0.96c0.44,0.29,0.74,0.61,0.91,0.96
				c0.16,0.35,0.26,0.79,0.29,1.31c0.03,0.5,0.05,0.97,0.06,1.43c0.01,0.46,0.03,0.92,0.04,1.39c0.26-0.01,0.52-0.04,0.8-0.07
				s0.55-0.06,0.81-0.1c0.26-0.04,0.52-0.08,0.76-0.12c0.24-0.04,0.46-0.09,0.64-0.15l0.11,1.29c-0.19,0.04-0.4,0.08-0.65,0.12
				c-0.25,0.04-0.51,0.07-0.79,0.11s-0.56,0.07-0.84,0.1c-0.28,0.03-0.55,0.05-0.81,0.07c0,1.18-0.02,2.41-0.06,3.69h-1.28
				c0.07-1.3,0.1-2.57,0.07-3.82c-0.02-1.25-0.07-2.45-0.14-3.58c-0.01-0.26-0.05-0.48-0.1-0.64c-0.05-0.17-0.11-0.31-0.19-0.43
				c-0.08-0.12-0.17-0.22-0.29-0.31c-0.11-0.09-0.24-0.18-0.38-0.28c-0.2-0.13-0.4-0.25-0.61-0.37c-0.21-0.12-0.43-0.23-0.67-0.33
				L36.13,19.44z"/>
			<path d="M45.07,25.19c0.06,0.31,0.1,0.59,0.14,0.84c0.04,0.25,0.06,0.5,0.07,0.73s0.02,0.47,0.02,0.7s0,0.49,0,0.76
				c0.41,0,0.97,0,1.66-0.01c0.7-0.01,1.56-0.05,2.58-0.12c-0.01,0.42-0.06,0.81-0.13,1.16c-0.24,0.04-0.61,0.08-1.1,0.11
				c-0.49,0.03-1.01,0.05-1.57,0.08c-0.55,0.02-1.08,0.03-1.59,0.03c-0.5,0-0.89-0.01-1.16-0.02c0-0.28,0-0.51,0-0.71
				c0-0.2,0-0.4-0.01-0.61c-0.01-0.21-0.01-0.44-0.02-0.7s-0.02-0.58-0.03-0.97c-0.01-0.51-0.1-0.87-0.26-1.08
				c-0.16-0.21-0.39-0.4-0.7-0.58c-0.11-0.07-0.22-0.13-0.32-0.17c-0.1-0.04-0.21-0.09-0.32-0.15l0.47-1.22
				c0.21,0.09,0.44,0.19,0.69,0.31c0.25,0.12,0.48,0.25,0.69,0.42s0.4,0.34,0.57,0.55C44.92,24.72,45.02,24.94,45.07,25.19z
				 M45.92,36.05c0-0.39-0.01-0.76-0.02-1.09c-0.01-0.33-0.03-0.67-0.05-1.02c-0.02-0.34-0.05-0.7-0.09-1.08
				c-0.04-0.38-0.08-0.8-0.14-1.27c1.46-0.03,2.77-0.08,3.9-0.14c1.14-0.07,2-0.14,2.58-0.23c0.07,0.74,0.1,1.47,0.08,2.19
				s-0.08,1.46-0.21,2.23c-0.24,0.04-0.64,0.09-1.19,0.15c-0.55,0.06-1.15,0.11-1.78,0.15c-0.63,0.04-1.24,0.08-1.81,0.1
				C46.61,36.06,46.19,36.07,45.92,36.05z M50.8,32.62c-0.2,0.03-0.44,0.06-0.74,0.09c-0.29,0.03-0.61,0.05-0.95,0.08
				s-0.69,0.04-1.05,0.05s-0.69,0.02-1,0.02c0.03,0.34,0.05,0.66,0.06,0.98c0.01,0.32,0.03,0.65,0.04,0.98
				c0.23,0,0.49-0.01,0.8-0.02c0.31-0.01,0.62-0.03,0.94-0.05c0.32-0.02,0.64-0.05,0.97-0.08c0.33-0.03,0.63-0.07,0.92-0.11
				C50.85,33.92,50.85,33.28,50.8,32.62z M49.78,19.44c0.81,0.35,1.43,0.67,1.86,0.96c0.44,0.29,0.74,0.61,0.91,0.96
				s0.26,0.79,0.29,1.31c0.09,1.35,0.13,2.64,0.13,3.87s-0.02,2.52-0.06,3.89h-1.28c0.07-1.3,0.1-2.57,0.07-3.82
				c-0.02-1.25-0.07-2.45-0.14-3.58c-0.01-0.26-0.05-0.48-0.1-0.64c-0.05-0.17-0.11-0.31-0.19-0.43c-0.08-0.12-0.17-0.22-0.29-0.31
				c-0.11-0.09-0.24-0.18-0.38-0.28c-0.2-0.13-0.4-0.25-0.61-0.37s-0.43-0.23-0.67-0.33L49.78,19.44z"/>
			<path d="M57.67,24.47c0.33,0.15,0.67,0.34,1.03,0.59c0.36,0.25,0.7,0.58,1.02,0.99c0.32,0.42,0.6,0.93,0.83,1.54
				c0.23,0.61,0.39,1.35,0.48,2.23c0.04,0.52,0,0.99-0.14,1.39c-0.14,0.4-0.34,0.74-0.62,1c-0.28,0.27-0.61,0.47-1,0.61
				s-0.81,0.21-1.27,0.21c-0.54,0-0.98-0.12-1.32-0.35c-0.34-0.23-0.61-0.52-0.8-0.87c-0.19-0.35-0.32-0.74-0.4-1.16
				c-0.07-0.42-0.11-0.82-0.11-1.2c0.03-0.9,0.15-1.77,0.35-2.59c0.21-0.82,0.43-1.67,0.67-2.54L57.67,24.47z M59.74,29.58
				c-0.04-0.42-0.13-0.83-0.27-1.21c-0.14-0.39-0.31-0.75-0.52-1.09c-0.21-0.34-0.45-0.65-0.71-0.92c-0.26-0.27-0.54-0.51-0.82-0.71
				c-0.47,1.21-0.71,2.43-0.73,3.67c0,0.31,0.02,0.61,0.07,0.91c0.05,0.3,0.13,0.57,0.23,0.81s0.25,0.43,0.42,0.58
				c0.17,0.15,0.38,0.22,0.62,0.22c0.2,0,0.41-0.03,0.63-0.1c0.22-0.07,0.42-0.18,0.59-0.35c0.17-0.17,0.31-0.4,0.41-0.69
				C59.76,30.41,59.78,30.04,59.74,29.58z M61.51,19.44c0.81,0.35,1.43,0.67,1.86,0.96c0.44,0.29,0.74,0.61,0.91,0.96
				s0.26,0.79,0.29,1.31c0.06,0.99,0.09,2.07,0.11,3.23c0.01,1.17,0.01,2.34-0.01,3.53c-0.02,1.19-0.05,2.35-0.1,3.5
				s-0.09,2.17-0.15,3.09h-1.28c0.04-1,0.09-2.07,0.13-3.18c0.04-1.11,0.07-2.24,0.1-3.37c0.02-1.13,0.03-2.24,0.02-3.34
				c-0.01-1.1-0.04-2.14-0.1-3.11c-0.01-0.26-0.05-0.48-0.1-0.64c-0.05-0.17-0.11-0.31-0.19-0.43c-0.08-0.12-0.17-0.22-0.29-0.31
				c-0.11-0.09-0.24-0.18-0.38-0.28c-0.2-0.13-0.4-0.25-0.61-0.37s-0.43-0.23-0.67-0.33L61.51,19.44z"/>
			<path d="M75.97,21.43c0.03,0.38,0.06,0.77,0.09,1.17c0.03,0.4,0.04,0.81,0.04,1.24c0.33-0.03,0.66-0.07,1-0.11
				c0.34-0.04,0.7-0.1,1.07-0.17c0.03,0.19,0.04,0.42,0.03,0.69c-0.01,0.27-0.01,0.57-0.01,0.91c-0.03,0.64-0.23,1.25-0.62,1.84
				c0.3,0.36,0.6,0.7,0.91,1.02c0.31,0.31,0.62,0.62,0.95,0.91l-0.77,1.03c-0.68-0.57-1.33-1.21-1.94-1.92
				c-0.37,0.36-0.79,0.7-1.25,1c-0.46,0.31-0.94,0.58-1.44,0.83c-0.11-0.1-0.22-0.23-0.31-0.38c-0.09-0.15-0.24-0.35-0.44-0.58
				c1.09-0.6,1.96-1.22,2.6-1.88c0.64-0.66,0.97-1.34,0.98-2.05c-0.51,0.07-0.96,0.13-1.33,0.16c-0.38,0.04-0.84,0.05-1.4,0.05
				c-0.33,0-0.62-0.07-0.87-0.21c-0.26-0.14-0.54-0.3-0.85-0.49l0.47-1.22c0.2,0.12,0.41,0.23,0.62,0.35
				c0.21,0.12,0.46,0.23,0.75,0.35c0.1,0,0.2,0,0.29,0c0.09,0,0.2-0.01,0.31-0.02c0-0.42-0.01-0.84-0.02-1.26
				c-0.01-0.42-0.04-0.83-0.06-1.24H75.97z M76.57,31.46c0.34,0.03,0.72,0.05,1.14,0.05c0.42,0.01,0.84,0.01,1.27,0.01
				c0.43,0,0.83-0.01,1.23-0.03s0.73-0.05,1.01-0.08l0.06,1.2c-0.2,0.51-0.48,0.98-0.83,1.42c0.31,0.25,0.64,0.48,0.98,0.71
				s0.65,0.41,0.92,0.56l-0.75,0.92c-0.28-0.17-0.6-0.38-0.94-0.62c-0.34-0.24-0.67-0.48-0.98-0.73c-0.28,0.28-0.59,0.53-0.91,0.76
				c-0.32,0.23-0.62,0.44-0.91,0.61l-0.81-0.87c0.27-0.14,0.54-0.32,0.82-0.51c0.28-0.2,0.54-0.41,0.79-0.64
				c0.25-0.23,0.48-0.48,0.69-0.73s0.4-0.51,0.55-0.78c-0.27,0-0.57,0-0.89,0.01c-0.32,0.01-0.64,0.01-0.95,0.01
				c-0.31,0-0.6,0-0.86-0.01c-0.26-0.01-0.47-0.02-0.63-0.03L76.57,31.46z M79.43,19.44c0.81,0.35,1.43,0.67,1.86,0.96
				c0.44,0.29,0.74,0.61,0.91,0.96c0.16,0.35,0.26,0.79,0.29,1.31c0.03,0.5,0.05,0.97,0.06,1.43c0.01,0.46,0.03,0.92,0.04,1.39
				c0.26-0.01,0.52-0.04,0.8-0.07s0.55-0.06,0.81-0.1c0.26-0.04,0.52-0.08,0.76-0.12c0.24-0.04,0.46-0.09,0.64-0.15l0.11,1.29
				c-0.19,0.04-0.4,0.08-0.65,0.12c-0.25,0.04-0.51,0.07-0.79,0.11s-0.56,0.07-0.84,0.1c-0.28,0.03-0.55,0.05-0.81,0.07
				c0,1.18-0.02,2.41-0.06,3.69h-1.28c0.07-1.3,0.1-2.57,0.07-3.82c-0.02-1.25-0.07-2.45-0.14-3.58c-0.01-0.26-0.05-0.48-0.1-0.64
				c-0.05-0.17-0.11-0.31-0.19-0.43c-0.08-0.12-0.17-0.22-0.29-0.31c-0.11-0.09-0.24-0.18-0.38-0.28c-0.2-0.13-0.4-0.25-0.61-0.37
				c-0.21-0.12-0.43-0.23-0.67-0.33L79.43,19.44z"/>
			<path d="M92.72,24.86c-1.07,0.12-1.94,0.2-2.61,0.24c-0.68,0.04-1.25,0.07-1.74,0.09c0.11,0.51,0.18,1.02,0.21,1.52
				c0.03,0.5,0.04,1.01,0.02,1.52c0.41,0,0.96-0.01,1.64-0.02s1.55-0.05,2.6-0.11c-0.03,0.28-0.05,0.5-0.06,0.67
				c-0.01,0.17-0.04,0.33-0.06,0.49c-0.24,0.04-0.61,0.08-1.1,0.11c-0.49,0.03-1.01,0.05-1.57,0.08c-0.55,0.02-1.08,0.03-1.59,0.03
				c-0.5,0-0.89-0.01-1.16-0.02c0-0.51-0.01-1.01-0.02-1.5c-0.01-0.49-0.03-0.99-0.04-1.5c-0.03-0.51-0.12-0.87-0.27-1.08
				s-0.38-0.4-0.69-0.58c-0.11-0.07-0.22-0.13-0.32-0.17c-0.1-0.04-0.21-0.09-0.32-0.15l0.47-1.22c0.24,0.1,0.46,0.2,0.66,0.3
				c0.2,0.09,0.43,0.23,0.7,0.4c0.27,0,0.62-0.01,1.06-0.03c0.43-0.02,0.9-0.05,1.39-0.08s0.98-0.07,1.46-0.12
				c0.48-0.05,0.92-0.11,1.3-0.16c0.03,0.2,0.05,0.4,0.05,0.59S92.73,24.57,92.72,24.86z M90.93,36.01c0-0.57-0.01-1.07-0.03-1.51
				c-0.02-0.44-0.04-0.83-0.06-1.17c-0.02-0.34-0.05-0.66-0.09-0.94c-0.04-0.28-0.07-0.56-0.12-0.84l1.34-0.07
				c0.06,0.54,0.1,1.08,0.14,1.64c0.04,0.55,0.06,1.11,0.07,1.66c0.31,0,0.69-0.01,1.13-0.04c0.44-0.03,0.88-0.06,1.32-0.1
				c0.44-0.04,0.86-0.08,1.26-0.14c0.4-0.06,0.73-0.12,0.98-0.2l0.11,1.29c-0.24,0.04-0.64,0.09-1.19,0.15
				c-0.55,0.06-1.15,0.11-1.78,0.15c-0.63,0.04-1.24,0.08-1.81,0.1C91.62,36.02,91.2,36.02,90.93,36.01z M93.14,25.74
				c0.36,0,0.8-0.03,1.34-0.08s1.05-0.11,1.51-0.19c-0.01-0.45-0.02-0.88-0.03-1.3c-0.01-0.42-0.02-0.8-0.05-1.15
				c-0.01-0.26-0.05-0.48-0.1-0.64c-0.05-0.17-0.11-0.31-0.19-0.43c-0.08-0.12-0.17-0.22-0.29-0.31c-0.11-0.09-0.24-0.18-0.38-0.28
				c-0.2-0.13-0.4-0.25-0.61-0.37s-0.43-0.23-0.67-0.33l0.47-1.22c0.81,0.35,1.43,0.67,1.86,0.96c0.44,0.29,0.74,0.61,0.91,0.96
				s0.26,0.79,0.29,1.31c0.04,0.68,0.07,1.4,0.1,2.14c0.02,0.74,0.03,1.5,0.03,2.26s-0.01,1.53-0.02,2.28
				c-0.01,0.76-0.03,1.48-0.04,2.16h-1.28c0.03-0.7,0.05-1.46,0.06-2.29s0.01-1.66,0-2.49c-0.47,0.07-0.97,0.14-1.5,0.19
				c-0.53,0.05-0.99,0.06-1.38,0.03L93.14,25.74z"/>
			<path d="M105.64,32.84c0.74,0,1.56,0,2.46-0.01c0.9-0.01,1.82-0.03,2.76-0.05s1.87-0.07,2.79-0.12s1.77-0.11,2.54-0.19
				c0,0.22,0,0.44-0.01,0.66c-0.01,0.22-0.02,0.44-0.03,0.66c-0.71,0.09-1.5,0.16-2.38,0.22c-0.87,0.06-1.78,0.1-2.72,0.13
				s-1.88,0.05-2.82,0.05c-0.94,0.01-1.82,0-2.65-0.03L105.64,32.84z M112.94,30.15c0.07-0.64,0.13-1.28,0.19-1.92
				c0.06-0.64,0.1-1.25,0.13-1.81s0.05-1.09,0.07-1.56s0.03-0.88,0.03-1.21c-0.26,0.03-0.63,0.06-1.12,0.09
				c-0.49,0.03-1.01,0.05-1.56,0.08s-1.07,0.04-1.58,0.04c-0.5,0.01-0.89,0.01-1.16,0.01c-0.33,0-0.62-0.07-0.87-0.21
				c-0.26-0.14-0.54-0.3-0.85-0.49l0.47-1.22c0.2,0.12,0.41,0.23,0.62,0.35c0.21,0.12,0.46,0.23,0.75,0.35
				c0.27,0,0.7-0.01,1.28-0.03c0.58-0.02,1.21-0.05,1.87-0.08s1.31-0.07,1.94-0.12c0.63-0.05,1.14-0.11,1.52-0.16
				c0.01,0.25,0.02,0.58,0.03,0.98c0.01,0.41,0,0.86-0.01,1.34c-0.01,0.49-0.04,1-0.06,1.54c-0.03,0.54-0.06,1.05-0.1,1.54
				s-0.07,0.94-0.12,1.37c-0.04,0.42-0.09,0.76-0.13,1.01c-0.16,0.03-0.34,0.05-0.57,0.07C113.5,30.1,113.24,30.12,112.94,30.15z"/>
			<path d="M126.03,22.46c0.31,0.32,0.58,0.61,0.8,0.86c0.22,0.25,0.41,0.49,0.57,0.71c0.3,0.44,0.48,0.86,0.55,1.26
				c0.07,0.4,0.02,0.86-0.15,1.37c-0.03,0.06-0.05,0.11-0.06,0.15c-0.01,0.04-0.04,0.09-0.06,0.15c0.51,0.39,1.01,0.74,1.48,1.04
				c0.48,0.3,0.96,0.56,1.46,0.8l-0.58,1.09c-0.54-0.26-1.06-0.54-1.56-0.84c-0.5-0.3-0.98-0.63-1.45-0.99
				c-0.28,0.39-0.6,0.78-0.94,1.16s-0.68,0.69-1,0.94l-0.81-1c0.43-0.38,0.85-0.8,1.28-1.28s0.72-0.94,0.87-1.41
				c0.09-0.25,0.13-0.46,0.14-0.63c0.01-0.17-0.01-0.33-0.04-0.47c-0.04-0.14-0.09-0.27-0.17-0.39s-0.17-0.26-0.27-0.4
				c-0.16-0.2-0.31-0.4-0.46-0.59s-0.32-0.37-0.5-0.55L126.03,22.46z M127.4,36.01c0-0.57-0.01-1.07-0.03-1.51
				c-0.02-0.44-0.04-0.83-0.06-1.17c-0.02-0.34-0.05-0.66-0.08-0.94c-0.04-0.28-0.07-0.56-0.12-0.84l1.34-0.07
				c0.06,0.54,0.1,1.08,0.14,1.64s0.06,1.11,0.07,1.66c0.31,0,0.69-0.01,1.13-0.04s0.88-0.06,1.32-0.1
				c0.44-0.04,0.86-0.08,1.26-0.14c0.4-0.06,0.73-0.12,0.98-0.2l0.11,1.29c-0.24,0.04-0.64,0.09-1.19,0.15
				c-0.55,0.06-1.15,0.11-1.78,0.15c-0.63,0.04-1.24,0.08-1.81,0.1C128.09,36.02,127.67,36.02,127.4,36.01z M130.62,19.44
				c0.81,0.35,1.43,0.67,1.86,0.96c0.44,0.29,0.74,0.61,0.91,0.96s0.26,0.79,0.29,1.31c0.04,0.68,0.07,1.4,0.1,2.14
				c0.02,0.74,0.03,1.5,0.03,2.26s-0.01,1.53-0.02,2.28c-0.01,0.76-0.03,1.48-0.04,2.16h-1.28c0.03-0.64,0.05-1.34,0.06-2.1
				c0.01-0.76,0.01-1.52,0-2.27c-0.01-0.76-0.03-1.49-0.05-2.21c-0.02-0.71-0.05-1.36-0.07-1.92c-0.01-0.26-0.05-0.48-0.1-0.64
				c-0.05-0.17-0.11-0.31-0.19-0.43c-0.08-0.12-0.17-0.22-0.29-0.31c-0.11-0.09-0.24-0.18-0.38-0.28c-0.2-0.13-0.4-0.25-0.61-0.37
				s-0.43-0.23-0.67-0.33L130.62,19.44z"/>
			<path d="M139.47,23.07c0.38,0.06,0.75,0.16,1.09,0.31s0.63,0.35,0.87,0.61c0.24,0.26,0.42,0.58,0.53,0.96
				c0.11,0.38,0.14,0.84,0.09,1.38c-0.04,0.35-0.13,0.69-0.27,1.01c-0.14,0.32-0.34,0.61-0.61,0.86c-0.27,0.26-0.62,0.46-1.06,0.6
				s-0.96,0.22-1.57,0.22c-0.71,0-1.22-0.11-1.54-0.33c-0.31-0.22-0.51-0.48-0.59-0.79c-0.08-0.31-0.09-0.63-0.02-0.96
				s0.13-0.62,0.2-0.85c0.16-0.52,0.35-1.05,0.59-1.57c0.23-0.52,0.45-1.04,0.65-1.55L139.47,23.07z M140.73,26.33
				c0.07-0.7-0.06-1.22-0.38-1.56c-0.33-0.34-0.83-0.56-1.51-0.65c-0.2,0.34-0.37,0.65-0.5,0.94c-0.14,0.29-0.26,0.64-0.37,1.05
				c-0.17,0.55-0.2,0.99-0.08,1.32c0.11,0.33,0.45,0.49,1,0.49c0.41,0,0.81-0.12,1.19-0.37C140.45,27.3,140.67,26.9,140.73,26.33z
				 M139.77,36.64c-0.07-0.92-0.16-1.82-0.27-2.72c-0.11-0.9-0.26-1.8-0.46-2.72l1.3-0.04c0.07,0.29,0.13,0.58,0.17,0.87
				c0.04,0.29,0.09,0.58,0.13,0.87c0.37-0.03,0.79-0.06,1.27-0.09c0.48-0.03,0.93-0.07,1.35-0.13c-0.01-0.41-0.04-0.82-0.06-1.22
				c-0.03-0.41-0.06-0.82-0.11-1.22l1.22-0.11c0.06,0.35,0.1,0.8,0.14,1.37c0.04,0.56,0.06,1.14,0.07,1.74
				c0.01,0.6,0.01,1.18-0.01,1.74s-0.06,1.02-0.12,1.37c-0.24,0.04-0.57,0.09-0.97,0.13s-0.84,0.08-1.29,0.11s-0.9,0.05-1.32,0.07
				S140.04,36.66,139.77,36.64z M143.29,33.95c-0.41,0.04-0.84,0.08-1.29,0.12c-0.45,0.04-0.86,0.06-1.23,0.08
				c0.03,0.2,0.05,0.42,0.05,0.63c0.01,0.22,0.02,0.43,0.05,0.63c0.38,0.01,0.79,0.01,1.21,0s0.81-0.06,1.18-0.13
				c0.01-0.22,0.02-0.44,0.02-0.67C143.29,34.39,143.29,34.17,143.29,33.95z M142.35,19.44c0.81,0.35,1.43,0.67,1.86,0.96
				c0.44,0.29,0.74,0.61,0.91,0.96s0.26,0.79,0.29,1.31c0.04,0.68,0.07,1.29,0.1,1.8c0.02,0.52,0.03,1.02,0.03,1.52
				s-0.01,1-0.02,1.53s-0.03,1.13-0.04,1.81h-1.28c0.03-0.64,0.05-1.22,0.06-1.75s0.01-1.03,0-1.52s-0.03-0.98-0.05-1.46
				c-0.02-0.49-0.05-1.02-0.07-1.58c-0.01-0.26-0.05-0.48-0.1-0.64c-0.05-0.17-0.11-0.31-0.19-0.43c-0.08-0.12-0.17-0.22-0.29-0.31
				c-0.11-0.09-0.24-0.18-0.38-0.28c-0.2-0.13-0.4-0.25-0.61-0.37s-0.43-0.23-0.67-0.33L142.35,19.44z"/>
		</g>
	</g>
	<g>
		<g>
			<path d="M1.51,43.85c13.29-4.7,28.08-4.54,41.99-4.07c14.51,0.49,28.99,2.03,43.52,2.11c17,0.1,33.98-1.48,50.97-0.82
				c7.63,0.3,15.18,1.16,22.74,2.17c5.7,0.76,11.41,1.53,17.15,1.89c13.9,0.87,27.59-1.25,40.84-5.47c2.13-0.68,4.24-1.4,6.34-2.16
				c1.49-0.54,0.85-2.94-0.66-2.39c-13.81,4.99-28.12,8.16-42.86,7.71c-12.69-0.39-25.18-3.06-37.84-3.92
				c-16.9-1.15-33.79,0.3-50.69,0.5c-14.94,0.18-29.8-1.21-44.71-1.9c-14.27-0.66-29.18-1.07-43.11,2.62
				c-1.47,0.39-2.91,0.84-4.34,1.34C-0.65,41.98,0,44.38,1.51,43.85L1.51,43.85z"/>
		</g>
	</g>
</g>
</svg>
