<?xml version="1.0" encoding="utf-8"?>
<!-- Generator: Adobe Illustrator 23.1.0, SVG Export Plug-In . SVG Version: 6.00 Build 0)  -->
<svg version="1.1" id="Layer_1" xmlns="http://www.w3.org/2000/svg" xmlns:xlink="http://www.w3.org/1999/xlink" x="0px" y="0px"
	 viewBox="0 0 57.61 39.72" style="enable-background:new 0 0 57.61 39.72;" xml:space="preserve">
<style type="text/css">
	.st0{fill:#FFFFFF;}
	.st1{fill:#F7F8F8;}
</style>
<g id="서명진">
	<g>
		<g>
			<g>
				<path class="st0" d="M29.38,19.07c1.88-5.9,3.75-11.79,5.63-17.69c1.86,3.4,3.72,6.79,5.58,10.19c1.07-3.63,2.13-7.25,3.2-10.88
					c2.65,6.3,4.95,12.67,6.89,19.11"/>
			</g>
			<g>
				<g>
					<path d="M29.81,18.94c1.88-5.9,3.75-11.79,5.63-17.69c-0.28,0.04-0.55,0.07-0.83,0.11c1.86,3.4,3.72,6.79,5.58,10.19
						c0.19,0.35,0.72,0.26,0.83-0.11c1.07-3.63,2.13-7.25,3.2-10.88c-0.29,0-0.58,0-0.88,0c2.62,6.25,4.93,12.62,6.89,19.11
						c0.17,0.56,1.04,0.32,0.88-0.24c-1.96-6.49-4.26-12.86-6.89-19.11c-0.16-0.39-0.74-0.47-0.88,0c-1.07,3.63-2.13,7.25-3.2,10.88
						c0.28-0.04,0.55-0.07,0.83-0.11C39.12,7.7,37.26,4.3,35.4,0.91c-0.19-0.36-0.72-0.25-0.83,0.11
						c-1.88,5.9-3.75,11.79-5.63,17.69C28.76,19.26,29.64,19.5,29.81,18.94L29.81,18.94z"/>
				</g>
			</g>
		</g>
		<g>
			<g>
				<path class="st0" d="M44.18,20.62c4.38-0.45,8.75-0.9,13.13-1.35"/>
			</g>
			<g>
				<g>
					<path d="M44.18,20.94c4.38-0.45,8.75-0.9,13.13-1.35c0.4-0.04,0.41-0.68,0-0.64c-4.38,0.45-8.75,0.9-13.13,1.35
						C43.77,20.34,43.77,20.98,44.18,20.94L44.18,20.94z"/>
				</g>
			</g>
		</g>
		<g>
			<g>
				<path class="st0" d="M51.04,19.82c0.51,2.99,1.01,5.98,1.52,8.98c0.21,1.25,0.32,2.73-0.99,3.56c-1.3,0.82-3.42,0.52-4.69-0.32
					c-1.27-0.84-1.9-2.07-2.49-3.25"/>
			</g>
			<g>
				<g>
					<path d="M50.6,19.95c0.34,2.02,0.69,4.04,1.03,6.07c0.17,1,0.35,1.99,0.51,2.99c0.11,0.67,0.2,1.43-0.06,2.08
						c-0.62,1.6-2.84,1.49-4.16,0.98c-1.58-0.61-2.42-2.06-3.14-3.5c-0.26-0.52-1.04-0.06-0.78,0.46c0.84,1.68,1.85,3.24,3.68,3.92
						c1.51,0.57,3.61,0.59,4.76-0.72c1.2-1.37,0.59-3.4,0.32-4.99c-0.42-2.51-0.85-5.01-1.27-7.52
						C51.38,19.13,50.5,19.37,50.6,19.95L50.6,19.95z"/>
				</g>
			</g>
		</g>
		<g>
			<g>
				<g>
					<path d="M35.99,12.97c0.58,0,0.59-0.91,0-0.91C35.41,12.06,35.41,12.97,35.99,12.97L35.99,12.97z"/>
				</g>
			</g>
		</g>
		<g>
			<g>
				<g>
					<path d="M44.29,12.35c0.58,0,0.59-0.91,0-0.91C43.7,11.44,43.7,12.35,44.29,12.35L44.29,12.35z"/>
				</g>
			</g>
		</g>
		<g>
			<g>
				<path class="st0" d="M36.84,16.86c0.14,0.47,0.28,0.94,0.65,1.34c0.36,0.4,1,0.7,1.65,0.62c0.67-0.07,1.17-0.53,1.34-1.01
					c0.16-0.48,0.06-0.99-0.04-1.48c-0.04,0.62,0.21,1.27,0.83,1.69s1.63,0.56,2.34,0.23c0.71-0.33,0.93-1.16,0.33-1.6"/>
			</g>
			<g>
				<g>
					<path d="M36.41,16.98c0.19,0.65,0.44,1.3,0.98,1.74c0.52,0.42,1.2,0.64,1.87,0.54c0.6-0.08,1.15-0.43,1.47-0.95
						c0.4-0.64,0.28-1.4,0.14-2.11c-0.11-0.52-0.87-0.37-0.89,0.12c-0.07,1.57,1.35,2.63,2.84,2.56c0.66-0.03,1.36-0.28,1.72-0.87
						c0.34-0.56,0.24-1.27-0.28-1.68c-0.45-0.36-1.1,0.28-0.64,0.64c0.25,0.2,0.28,0.45,0.05,0.69c-0.28,0.3-0.77,0.34-1.16,0.31
						c-0.91-0.07-1.66-0.69-1.62-1.64c-0.3,0.04-0.59,0.08-0.89,0.12c0.09,0.44,0.22,0.95-0.02,1.37c-0.19,0.34-0.57,0.54-0.95,0.56
						c-1.02,0.07-1.49-0.8-1.74-1.64C37.11,16.18,36.24,16.42,36.41,16.98L36.41,16.98z"/>
				</g>
			</g>
		</g>
	</g>
	<g>
		<g>
			<path d="M2.08,25.83c0.37,0.36,0.69,0.68,0.95,0.96s0.49,0.55,0.67,0.79c0.35,0.49,0.56,0.95,0.62,1.38
				c0.06,0.43,0,0.93-0.19,1.5c-0.05,0.15-0.1,0.3-0.15,0.45c-0.05,0.16-0.11,0.31-0.18,0.48c0.59,0.68,1.16,1.33,1.71,1.93
				c0.55,0.6,1.14,1.16,1.76,1.66l-0.91,1.15c-1.18-0.91-2.27-1.99-3.25-3.25c-0.29,0.62-0.6,1.22-0.93,1.79s-0.64,1.1-0.93,1.57
				L0,35.47c0.51-0.81,0.99-1.65,1.46-2.51s0.83-1.75,1.1-2.66c0.08-0.28,0.13-0.51,0.14-0.71c0.01-0.2,0-0.37-0.04-0.53
				c-0.03-0.15-0.1-0.3-0.19-0.44c-0.09-0.14-0.2-0.29-0.32-0.45c-0.19-0.23-0.37-0.45-0.55-0.66c-0.18-0.21-0.38-0.42-0.6-0.61
				L2.08,25.83z M6.85,30.22c0.22,0,0.49-0.01,0.82-0.02c0.33-0.02,0.69-0.04,1.08-0.06c0.39-0.02,0.78-0.06,1.18-0.1
				c0.4-0.04,0.76-0.09,1.1-0.13c0-0.86-0.01-1.7-0.03-2.53c-0.02-0.82-0.05-1.61-0.1-2.38c-0.02-0.29-0.05-0.53-0.11-0.72
				c-0.06-0.19-0.14-0.34-0.23-0.48c-0.09-0.13-0.21-0.24-0.34-0.34c-0.14-0.1-0.29-0.2-0.46-0.32C9.53,23,9.29,22.86,9.04,22.73
				s-0.51-0.25-0.8-0.37L8.8,21c0.96,0.39,1.7,0.75,2.21,1.07c0.52,0.33,0.88,0.68,1.08,1.07c0.19,0.39,0.31,0.88,0.34,1.46
				c0.07,1.11,0.11,2.31,0.13,3.61c0.02,1.3,0.01,2.62-0.01,3.94c-0.03,1.33-0.06,2.63-0.11,3.9c-0.05,1.28-0.11,2.43-0.18,3.45
				h-1.52c0.07-1.27,0.13-2.6,0.18-3.99c0.05-1.39,0.08-2.79,0.1-4.21c-0.34,0.05-0.7,0.09-1.08,0.12
				c-0.38,0.03-0.76,0.06-1.14,0.09s-0.74,0.04-1.07,0.06c-0.33,0.02-0.61,0.02-0.85,0L6.85,30.22z"/>
			<path d="M15.88,32.18c0-0.2,0-0.4,0-0.61c0-0.21,0-0.45-0.01-0.71c-0.01-0.26-0.02-0.55-0.03-0.88
				c-0.01-0.33-0.02-0.71-0.04-1.15c-0.02-0.57-0.12-0.97-0.3-1.21c-0.19-0.24-0.47-0.45-0.84-0.65c-0.14-0.08-0.26-0.15-0.38-0.2
				s-0.25-0.11-0.38-0.17l0.56-1.37c0.29,0.11,0.55,0.22,0.79,0.33c0.24,0.11,0.52,0.26,0.84,0.45c0.32,0,0.74-0.01,1.26-0.04
				c0.52-0.02,1.07-0.05,1.65-0.08c0.58-0.03,1.16-0.08,1.74-0.13c0.57-0.06,1.09-0.12,1.55-0.18c0.03,0.41,0.05,0.89,0.04,1.44
				c-0.01,0.55-0.04,1.12-0.09,1.71s-0.11,1.16-0.19,1.73s-0.15,1.07-0.22,1.49c-0.29,0.05-0.7,0.09-1.23,0.12
				c-0.53,0.03-1.09,0.06-1.69,0.09c-0.59,0.02-1.16,0.04-1.71,0.04S16.2,32.19,15.88,32.18z M20.72,27.15
				c-0.47,0.07-1.04,0.12-1.71,0.17s-1.29,0.08-1.86,0.1c0.14,0.72,0.22,1.32,0.25,1.81c0.03,0.49,0.04,1.02,0.03,1.59
				c0.49,0,1.01-0.01,1.56-0.02c0.55-0.02,1.04-0.04,1.48-0.07c0.08-0.47,0.14-1,0.18-1.59C20.68,28.54,20.71,27.88,20.72,27.15z
				 M24.07,34.18c0.78,0.18,1.4,0.52,1.86,1.04c0.46,0.51,0.65,1.15,0.55,1.92c-0.05,0.33-0.17,0.64-0.36,0.95
				c-0.19,0.31-0.44,0.59-0.77,0.83s-0.73,0.44-1.19,0.59c-0.47,0.15-0.99,0.22-1.56,0.22c-0.68,0-1.16-0.11-1.45-0.32
				c-0.29-0.21-0.46-0.46-0.51-0.76s-0.03-0.6,0.08-0.92s0.19-0.59,0.28-0.82c0.19-0.52,0.42-0.99,0.71-1.42
				c0.29-0.42,0.55-0.89,0.79-1.42L24.07,34.18z M24.98,36.98c0.07-0.47-0.05-0.87-0.34-1.18c-0.3-0.32-0.67-0.56-1.13-0.74
				c-0.12,0.18-0.22,0.34-0.29,0.48c-0.08,0.14-0.15,0.28-0.23,0.43s-0.16,0.31-0.24,0.49c-0.08,0.18-0.18,0.39-0.28,0.63
				c-0.22,0.49-0.3,0.87-0.25,1.15c0.05,0.28,0.29,0.42,0.71,0.42c0.54,0,1-0.15,1.38-0.44S24.92,37.5,24.98,36.98z M22.83,26.32
				c0.41,0,0.93-0.03,1.56-0.09c0.63-0.06,1.23-0.13,1.79-0.21c0-0.18,0-0.35-0.01-0.51c-0.01-0.16-0.02-0.33-0.04-0.51
				c-0.02-0.29-0.05-0.53-0.11-0.72c-0.06-0.19-0.14-0.34-0.23-0.48c-0.09-0.13-0.21-0.24-0.34-0.34c-0.14-0.1-0.29-0.2-0.46-0.32
				c-0.24-0.15-0.48-0.29-0.72-0.42s-0.51-0.25-0.8-0.37L24.02,21c0.96,0.39,1.7,0.75,2.21,1.07c0.52,0.33,0.88,0.68,1.08,1.07
				c0.19,0.39,0.31,0.88,0.34,1.46c0.1,1.51,0.15,2.95,0.15,4.32s-0.03,2.81-0.08,4.34H26.2c0.05-0.89,0.08-1.78,0.08-2.66
				c-0.56,0.08-1.15,0.15-1.79,0.21c-0.63,0.06-1.18,0.07-1.64,0.04l-0.03-1.37c0.42,0,0.96-0.03,1.61-0.09
				c0.65-0.06,1.26-0.13,1.84-0.21c-0.02-0.31-0.03-0.61-0.03-0.89c0-0.28-0.01-0.57-0.03-0.87c-0.56,0.08-1.15,0.15-1.78,0.21
				c-0.63,0.06-1.16,0.07-1.6,0.04L22.83,26.32z"/>
			<path d="M30.92,31.54c1.3-0.67,2.33-1.37,3.09-2.1c0.76-0.73,1.15-1.5,1.17-2.29c-0.61,0.08-1.14,0.14-1.58,0.18
				c-0.45,0.04-1,0.06-1.66,0.06c-0.39,0-0.74-0.08-1.04-0.23c-0.3-0.16-0.64-0.34-1.01-0.55l0.56-1.37
				c0.24,0.13,0.48,0.26,0.74,0.39c0.25,0.13,0.55,0.26,0.89,0.39c1.32-0.03,2.87-0.18,4.67-0.44c0.03,0.21,0.05,0.47,0.04,0.77
				c-0.01,0.3-0.01,0.64-0.01,1.01c-0.03,0.72-0.28,1.4-0.74,2.05c0.35,0.41,0.71,0.79,1.08,1.13s0.74,0.69,1.13,1.01l-0.91,1.15
				c-0.81-0.63-1.58-1.35-2.31-2.15c-0.44,0.41-0.93,0.78-1.48,1.12c-0.55,0.34-1.12,0.65-1.71,0.93c-0.14-0.11-0.26-0.26-0.37-0.43
				C31.33,32.02,31.16,31.8,30.92,31.54z M34.14,39.5c0-0.63-0.01-1.2-0.04-1.68c-0.03-0.49-0.05-0.92-0.08-1.31
				s-0.06-0.73-0.1-1.05c-0.04-0.32-0.09-0.63-0.14-0.94l1.6-0.07c0.07,0.6,0.12,1.21,0.17,1.83c0.04,0.62,0.07,1.24,0.09,1.85
				c0.37,0,0.82-0.02,1.34-0.05c0.52-0.03,1.05-0.07,1.57-0.11c0.52-0.04,1.02-0.09,1.5-0.16c0.47-0.07,0.86-0.14,1.17-0.22
				l0.13,1.44c-0.29,0.05-0.76,0.11-1.42,0.17c-0.66,0.06-1.37,0.12-2.12,0.17c-0.75,0.05-1.47,0.08-2.16,0.11
				C34.96,39.51,34.46,39.51,34.14,39.5z M37.97,21c0.96,0.39,1.7,0.75,2.21,1.07c0.52,0.33,0.88,0.68,1.08,1.07
				c0.19,0.39,0.31,0.88,0.34,1.46c0.05,0.76,0.09,1.56,0.11,2.39c0.03,0.83,0.04,1.67,0.04,2.53c0,0.85-0.01,1.7-0.03,2.55
				c-0.02,0.85-0.03,1.65-0.05,2.42h-1.52c0.03-0.72,0.06-1.5,0.08-2.34c0.02-0.85,0.02-1.69,0-2.54c-0.02-0.85-0.04-1.67-0.06-2.46
				s-0.06-1.51-0.09-2.15c-0.02-0.29-0.06-0.53-0.11-0.72c-0.06-0.19-0.14-0.34-0.23-0.48c-0.09-0.13-0.21-0.24-0.34-0.34
				c-0.14-0.1-0.29-0.2-0.46-0.32c-0.24-0.15-0.48-0.29-0.72-0.42s-0.51-0.25-0.8-0.37L37.97,21z"/>
		</g>
	</g>
</g>
</svg>
